<svg width="26" height="20" viewBox="0 0 26 20" fill="none" xmlns="http://www.w3.org/2000/svg">
    <path
        d="M21.9766 1.69014C20.3019 0.938967 18.5341 0.375587 16.6733 0H16.5802C16.3942 0.375587 16.115 0.938967 15.929 1.40845C13.882 1.12676 11.9282 1.12676 9.97432 1.40845C9.78823 0.938967 9.50911 0.469484 9.32303 0H9.22999C7.36916 0.28169 5.60138 0.84507 3.92664 1.69014C0.577157 6.76056 -0.353255 11.7371 0.111951 16.6197V16.7136C2.34494 18.4038 4.48489 19.3427 6.62483 20H6.71788C7.18308 19.3427 7.64829 18.5916 8.02045 17.8404V17.7465C7.27612 17.4648 6.62483 17.1831 5.97355 16.8075C5.8805 16.8075 5.8805 16.7136 5.97355 16.7136C6.06659 16.6197 6.25267 16.5258 6.34571 16.4319H6.43875C10.7186 18.4038 15.2777 18.4038 19.5576 16.4319H19.6506C19.7436 16.5258 19.9297 16.6197 20.0228 16.7136C20.1158 16.7136 20.0228 16.8075 20.0228 16.8075C19.3715 17.1831 18.7202 17.5587 17.9759 17.7465C17.9759 17.7465 17.8828 17.8404 17.9759 17.8404C18.348 18.5916 18.8132 19.3427 19.2784 20H19.3715C21.5114 19.3427 23.6514 18.3099 25.8844 16.7136V16.6197C26.4426 10.9859 24.9539 6.10329 21.9766 1.69014ZM8.67174 13.7089C7.36916 13.7089 6.34571 12.4883 6.34571 11.0798C6.34571 9.67136 7.36916 8.4507 8.67174 8.4507C9.97432 8.4507 10.9978 9.67136 10.9978 11.0798C10.9978 12.4883 9.97432 13.7089 8.67174 13.7089ZM17.3246 13.7089C16.022 13.7089 14.9985 12.4883 14.9985 11.0798C14.9985 9.67136 16.022 8.4507 17.3246 8.4507C18.6271 8.4507 19.6506 9.67136 19.6506 11.0798C19.6506 12.4883 18.6271 13.7089 17.3246 13.7089Z"
        fill="white" />
</svg>